<?xml version="1.0" encoding="utf-8"?>
<!-- Generator: Adobe Illustrator 17.0.0, SVG Export Plug-In . SVG Version: 6.00 Build 0)  -->
<!DOCTYPE svg PUBLIC "-//W3C//DTD SVG 1.1//EN" "http://www.w3.org/Graphics/SVG/1.1/DTD/svg11.dtd">
<svg version="1.1" id="Calque_1" xmlns="http://www.w3.org/2000/svg" xmlns:xlink="http://www.w3.org/1999/xlink" x="0px" y="0px"
	 width="126px" height="34px" viewBox="0 0 126 34" enable-background="new 0 0 126 34" xml:space="preserve">
<path fill="#FFFFFF" d="M23.57,31.422L25.51,20.31c0.161-0.971,0.242-1.805,0.242-2.506c0-0.996-0.195-1.738-0.586-2.222
	c-0.391-0.487-1.058-0.729-2-0.729c-0.727,0-1.34,0.129-1.838,0.384c-0.499,0.256-0.916,0.6-1.253,1.031
	c-0.337,0.431-0.6,0.908-0.788,1.434c-0.189,0.526-0.324,1.044-0.404,1.556l-2.101,12.163h-4.607l1.899-10.87
	c0.107-0.566,0.182-1.071,0.222-1.515c0.041-0.445,0.061-0.855,0.061-1.232c0-1.132-0.236-1.906-0.707-2.324
	c-0.472-0.417-1.192-0.626-2.162-0.626c-1.374,0-2.56,0.647-3.556,1.94L5.346,31.422H0.74L4.255,11.34l3.799,1.736l0,0
	c0.592-0.646,1.326-1.157,2.202-1.534c0.875-0.379,1.784-0.567,2.727-0.567c1.051,0,2.041,0.25,2.97,0.748
	c0.929,0.497,1.582,1.367,1.96,2.606c0.215-0.404,0.525-0.809,0.929-1.211c0.404-0.405,0.889-0.768,1.455-1.092
	s1.205-0.579,1.919-0.768c0.714-0.188,1.475-0.283,2.283-0.283c2.02,0,3.515,0.567,4.485,1.698c0.969,1.131,1.454,2.707,1.454,4.727
	c0,0.458-0.027,0.923-0.081,1.394c-0.054,0.471-0.121,0.976-0.202,1.515l-1.939,11.112H23.57z"/>
<path fill="#FFFFFF" d="M44.622,29.846c-0.754,0.646-1.475,1.138-2.162,1.473c-0.687,0.337-1.542,0.505-2.566,0.505
	c-1.239,0-2.323-0.216-3.252-0.646c-0.93-0.43-1.697-1.023-2.304-1.777c-0.606-0.755-1.058-1.636-1.353-2.646
	c-0.297-1.01-0.445-2.095-0.445-3.254c0-1.589,0.256-3.137,0.768-4.646c0.511-1.509,1.246-2.849,2.202-4.021
	s2.122-2.108,3.495-2.808s2.909-1.051,4.606-1.051c0.942,0,1.703,0.135,2.283,0.404c0.579,0.271,1.098,0.716,1.556,1.334
	l2.102-11.596h4.565l-5.294,30.707L44.622,29.846z M43.208,14.854c-0.889,0-1.691,0.216-2.404,0.645
	c-0.714,0.431-1.334,1.015-1.859,1.753c-0.525,0.738-0.93,1.603-1.213,2.598c-0.283,0.994-0.424,2.041-0.424,3.141
	c0,1.452,0.297,2.64,0.889,3.566c0.592,0.927,1.495,1.39,2.707,1.39c0.781,0,1.509-0.168,2.182-0.504
	c0.673-0.335,1.253-0.859,1.738-1.572c0.485-0.71,0.869-1.623,1.152-2.738c0.283-1.114,0.424-2.436,0.424-3.967
	c0-1.343-0.256-2.398-0.767-3.162C45.12,15.238,44.312,14.854,43.208,14.854z"/>
<path fill="#FFFFFF" d="M58.003,31.824c-1.535,0-2.802-0.168-3.798-0.505c-0.997-0.335-1.724-0.692-2.182-1.071l1.091-4.041
	c0.243,0.217,0.559,0.445,0.95,0.688c0.39,0.242,0.821,0.464,1.293,0.667c0.471,0.203,0.971,0.363,1.494,0.484
	c0.526,0.121,1.058,0.182,1.597,0.182c1.105,0,1.886-0.262,2.344-0.787c0.458-0.526,0.687-1.126,0.687-1.799
	c0-0.402-0.074-0.747-0.221-1.03c-0.15-0.283-0.345-0.525-0.587-0.727c-0.242-0.203-0.539-0.376-0.889-0.525
	c-0.35-0.149-0.729-0.289-1.131-0.425c-0.566-0.187-1.105-0.389-1.618-0.605c-0.51-0.216-0.968-0.499-1.373-0.85
	c-0.404-0.35-0.727-0.773-0.97-1.273c-0.242-0.497-0.364-1.136-0.364-1.918c0-0.729,0.128-1.523,0.384-2.385
	c0.256-0.862,0.687-1.656,1.294-2.385c0.605-0.726,1.413-1.332,2.423-1.818c1.01-0.484,2.257-0.727,3.738-0.727
	c1.239,0,2.37,0.157,3.394,0.464c1.023,0.31,1.752,0.641,2.183,0.99l-1.092,3.96c-0.189-0.242-0.445-0.485-0.768-0.729
	c-0.324-0.242-0.692-0.458-1.11-0.646c-0.418-0.188-0.863-0.343-1.334-0.464c-0.471-0.121-0.95-0.182-1.434-0.182
	c-0.431,0-0.855,0.054-1.273,0.16c-0.418,0.108-0.789,0.271-1.113,0.485c-0.321,0.217-0.584,0.485-0.787,0.809
	c-0.203,0.324-0.303,0.713-0.303,1.171c0,0.431,0.095,0.781,0.281,1.051c0.189,0.27,0.452,0.499,0.789,0.688
	c0.337,0.188,0.726,0.356,1.171,0.505c0.445,0.147,0.923,0.316,1.436,0.505c0.51,0.188,1.01,0.397,1.494,0.626
	c0.484,0.229,0.915,0.525,1.292,0.889c0.379,0.363,0.681,0.827,0.91,1.394c0.229,0.566,0.345,1.278,0.345,2.141
	c0,0.808-0.129,1.63-0.384,2.465c-0.258,0.834-0.702,1.589-1.334,2.262c-0.634,0.673-1.476,1.226-2.525,1.656
	C60.952,31.609,59.618,31.824,58.003,31.824z"/>
<path fill="#FFFFFF" d="M75.87,31.824c-1.267,0-2.37-0.221-3.313-0.666c-0.943-0.445-1.731-1.051-2.364-1.818
	c-0.634-0.768-1.111-1.664-1.435-2.689c-0.322-1.023-0.484-2.127-0.484-3.312c0-1.618,0.268-3.173,0.808-4.667
	c0.539-1.497,1.306-2.81,2.303-3.941s2.189-2.04,3.576-2.728c1.386-0.687,2.915-1.03,4.587-1.03c1.238,0,2.336,0.222,3.292,0.667
	c0.956,0.445,1.751,1.051,2.385,1.818c0.633,0.768,1.111,1.67,1.434,2.707c0.324,1.039,0.485,2.149,0.485,3.334
	c0,1.617-0.276,3.166-0.829,4.647s-1.321,2.795-2.303,3.939c-0.984,1.146-2.169,2.055-3.555,2.727
	C79.069,31.488,77.541,31.824,75.87,31.824z M78.86,14.854c-0.889,0-1.697,0.216-2.424,0.645c-0.727,0.431-1.34,1.015-1.839,1.753
	s-0.888,1.603-1.172,2.598c-0.283,0.994-0.424,2.068-0.424,3.223c0,1.477,0.296,2.66,0.889,3.545c0.592,0.887,1.481,1.33,2.666,1.33
	c0.889,0,1.69-0.216,2.404-0.645c0.714-0.43,1.327-1.014,1.839-1.752c0.512-0.739,0.909-1.613,1.192-2.619
	c0.283-1.006,0.425-2.087,0.425-3.244c0-1.477-0.304-2.652-0.91-3.524C80.901,15.291,80.019,14.854,78.86,14.854z"/>
<circle fill="#ED1E3A" cx="119.162" cy="26.713" r="5.382"/>
<path fill="#FFFFFF" d="M96.532,15.327l-2.869,16.364h-4.606l2.869-16.364H89.42l1.01-3.718h2.141L93.42,6.76
	c0.108-0.7,0.31-1.373,0.606-2.02c0.296-0.647,0.673-1.218,1.131-1.718c0.458-0.497,0.99-0.894,1.596-1.192
	c0.606-0.296,1.286-0.445,2.041-0.445c0.592,0,1.084,0.008,1.475,0.021c0.389,0.013,0.726,0.039,1.01,0.079
	c0.283,0.041,0.538,0.08,0.767,0.12c0.229,0.041,0.492,0.074,0.788,0.101l-1.05,3.801c-0.377-0.135-0.747-0.209-1.111-0.222
	s-0.613-0.021-0.748-0.021c-0.323,0-0.6,0.055-0.828,0.163c-0.23,0.109-0.431,0.299-0.606,0.57
	c-0.176,0.271-0.323,0.643-0.445,1.118c-0.121,0.475-0.249,1.092-0.383,1.851l-0.445,2.642h3.919l-0.687,3.718H96.532z"/>
<path fill="#FFFFFF" d="M109.466,31.824h-3.233c-0.729,0-1.355-0.108-1.878-0.324c-0.526-0.214-0.958-0.504-1.294-0.868
	c-0.337-0.363-0.579-0.788-0.726-1.272c-0.15-0.485-0.224-0.997-0.224-1.536c0-0.376,0.042-0.754,0.121-1.131l1.986-11.366h-2.546
	l1.05-3.718h2.141l0.85-4.565l4.727-0.485l-0.929,5.051h3.959l-0.647,3.718h-3.959l-1.62,9.266c-0.082,0.458-0.15,0.868-0.203,1.232
	c-0.055,0.363-0.082,0.666-0.082,0.909c0,0.62,0.174,0.997,0.521,1.131c0.345,0.135,0.958,0.201,1.839,0.201h1.236L109.466,31.824z"
	/>
</svg>
